<?xml version="1.0" standalone="no"?><!DOCTYPE svg PUBLIC "-//W3C//DTD SVG 1.1//EN" "http://www.w3.org/Graphics/SVG/1.1/DTD/svg11.dtd"><svg class="icon" width="200px" height="200.00px" viewBox="0 0 1024 1024" version="1.1" xmlns="http://www.w3.org/2000/svg"><path d="M150.4 257h658.2v146h46V211H104.4v515.3h375.1v-46H150.4zM239.2 393.1c0 44.8 36.7 81.3 81.8 81.3s81.8-36.5 81.8-81.3-36.7-81.3-81.8-81.3-81.8 36.4-81.8 81.3z m117.6 0c0 19.5-16.1 35.3-35.8 35.3s-35.8-15.8-35.8-35.3 16.1-35.3 35.8-35.3 35.8 15.8 35.8 35.3zM670.5 400.6c21.7 0 42.7 4.1 62.6 12.1l17.2-42.7c-25.4-10.2-52.2-15.4-79.8-15.4-57.1 0-110.7 22.2-151.1 62.6-36.6 36.6-58.3 84.2-62 135.3-21.1-6.3-43-9.5-65.5-9.5-70.6 0-136.1 31.9-179.7 87.6l36.2 28.4c34.8-44.4 87.1-69.9 143.5-69.9 26.9 0 52.7 5.7 76.9 17 7.8 3.7 17.1 2.9 24.2-2.1 7.1-4.9 11.1-13.3 10.4-22-0.4-4.6-0.6-9.2-0.6-13.7 0-92.5 75.2-167.7 167.7-167.7zM737.3 448.6c-100.5 0-182.2 81.7-182.2 182.2S636.9 813 737.3 813c100.5 0 182.2-81.7 182.2-182.2s-81.7-182.2-182.2-182.2z m0 318.4c-75.1 0-136.2-61.1-136.2-136.2s61.1-136.2 136.2-136.2 136.2 61.1 136.2 136.2c0.1 75.1-61.1 136.2-136.2 136.2zM760.3 560.8h-46v47h-47v46h47v47h46v-47h47v-46h-47z" /></svg>