<?xml version="1.0" standalone="no"?><!DOCTYPE svg PUBLIC "-//W3C//DTD SVG 1.1//EN" "http://www.w3.org/Graphics/SVG/1.1/DTD/svg11.dtd"><svg class="icon" width="200px" height="200.00px" viewBox="0 0 1024 1024" version="1.1" xmlns="http://www.w3.org/2000/svg"><path d="M128 768h768v128H128z" fill="#FF0000" /><path d="M513.728 64.256l1.28 0.128h1.152l1.28 0.192a43.584 43.584 0 0 1 32.32 20.096l3.2 6.08 235.712 550.656a44.8 44.8 0 0 1-16.768 55.232l-7.616 3.968a43.52 43.52 0 0 1-54.208-17.152l-2.944-5.76-63.104-147.328H380.224l-62.976 147.2a43.52 43.52 0 0 1-51.072 24.96l-6.592-2.304-1.28-0.64a44.8 44.8 0 0 1-22.592-58.304l235.712-550.656a43.584 43.584 0 0 1 42.304-26.368z m91.904 376.512l-93.44-218.496L418.56 440.768h187.008z" fill="#5D6166" /></svg>